Patient4_TMGait_0pt8_01_left_50_EMG.mot
version=1
nRows=23
nColumns=33
inDegrees=no
endheader
time	1LAddLong	2LGlutMax	3LGlutMed	4LIliopsoas	5LSemiMemb	6LBicFemLong	7LRecFem	8LVastMed	9LVastLat	10LGasMed	11LTibAnt	12lTibPost	13LPeroneusLong	14LSol	15LExtDigLong	16LFlexDigLong	17RAddLong	18RGlutMax	19RGlutMed	20RIliopsoas	21RSemiMemb	22RBicFemLong	23RRecFem	24RVastMed	25RVastLat	26RGasMed	27RTibAnt	28RTibPost	29RPeroneusLong	30RSol	31RExtDigLong	32RFlexDigLong
55.72	-0.006104	0.18936	-0.10437	-0.015259	-0.010834	-0.011444	-0.020447	0.024109	-0.62424	-0.055847	0.081177	0.004578	-0.009003	0.039825	-0.036316	0.003204	-0.057678	1.1378	-0.22308	0.1857	0.18524	-0.046387	0.042572	-0.21973	0.26596	-0.011139	0.1947	-0.001526	-0.14297	-0.035706	0.001984	-0.010834
55.721	0.001831	0.16113	-0.14954	0.015564	-0.010223	-0.003052	-0.014801	0.020294	-0.62805	-0.059814	0.26123	-0.006104	-0.021057	0.016022	-0.098724	0.003967	-0.044708	0.95306	-0.27237	0.042114	0.020599	-0.112	-0.037994	-0.064697	0.39627	-0.000458	0.10605	-0.003357	0.045319	-0.021362	-0.002441	-0.013733
55.722	0.001221	0.15243	-0.12726	0.005798	-0.007935	-0.017548	-0.002594	0.018311	-0.63568	-0.05249	0.092468	0.006256	-0.04425	-0.016479	-0.05661	0.000916	-0.006104	0.84686	0.2713	-0.1973	-0.3363	0.006866	-0.010376	0.018463	0.28488	-0.010834	-0.083466	-0.001831	0.19058	-0.14038	-0.00351	-0.012207
55.723	0.002136	0.15381	-0.070801	0.008545	-0.007629	-0.010681	-0.00061	0.019379	-0.56351	-0.074921	-0.056152	0.016632	-0.036469	-0.00412	-0.099335	-0.013733	-0.000305	0.70114	0.58105	-0.33981	-0.35675	0.18005	-0.17364	0.14877	0.23926	-0.023041	-0.11749	-0.001831	0.091248	-0.20309	-0.002441	-0.017395
55.724	0.007019	0.097961	-0.005951	-0.008698	-0.002136	-0.017853	0.001526	0.010834	-0.44922	-0.065613	-0.12283	0.02594	0.006409	-0.040283	-0.13245	0	-0.017548	0.57175	-0.033722	-0.30792	0.16876	0.08728	-0.19745	0.26977	-0.2507	0.005646	-0.21423	-0.000153	0.024414	-0.30075	-0.003357	-0.001831
55.725	0.001373	0.15091	0.020905	-0.00412	-0.003815	-0.018768	-0.00061	0.019836	-0.3125	-0.036621	-0.065155	0.017395	0.013733	-0.079346	-0.23727	0.006104	-0.015106	0.56595	-0.29236	-0.096436	0.32471	-0.024719	-0.21988	0.10452	-0.58289	0.004425	-0.25925	-0.008698	0.065918	-0.084076	-0.002441	-0.007782
55.726	0.002899	0.17105	-0.011139	0.005951	-0.001526	-0.007019	-0.003204	0.016632	-0.2002	-0.011597	0.037079	0.02121	-0.013885	-0.072327	-0.13534	0.010376	-0.009308	0.62378	-0.31677	0.12848	0.29373	-0.14038	-0.40985	0.013733	-0.21225	-0.015717	-0.22614	-0.005341	0.055695	0.17242	-0.001984	-0.001373
55.727	0.009766	0.19806	-0.029602	0.001678	-0.006104	-0.015259	-0.009918	0.019836	-0.11444	0.034943	0.10956	0.026398	-0.012054	-0.042419	-0.069733	0.007324	0.010376	0.61096	0.021057	0.28992	0.29159	-0.2475	-0.44281	-0.071259	0.091553	-0.003967	-0.072021	-0.002594	0.003815	0.22446	0	0.005798
55.728	0.010529	0.31784	-0.038605	-0.009003	-0.014648	-0.028992	-0.002594	0.019379	-0.038757	0.04425	0.089111	0.001678	0.023804	-0.05722	-0.098267	0.014801	0.049286	0.55527	0.14526	0.28488	0.11444	-0.2626	-0.32989	-0.13565	0.10117	-0.010834	0.1857	-0.006866	-0.020752	0.12909	-0.00412	0.001526
55.729	0.010071	0.38757	-0.045013	0.019073	-0.011749	-0.032196	-0.016632	0.016937	0.023499	0.042725	0.047302	0.018005	0.04776	-0.078125	-0.1236	0.019684	0.046997	0.47516	0.01358	0.15121	-0.19821	-0.17044	-0.11597	-0.10986	0.040436	-0.013733	0.30685	-0.011444	-0.16754	0.242	-0.002747	0.004425
55.73	0.008545	0.46997	-0.039368	0.028076	-0.010071	-0.054169	-0.004425	0.016174	0.071716	0.023804	-0.030823	0.018005	0.048981	-0.069427	-0.084686	0.010071	0.00885	0.3775	0.010071	0.072937	-0.39444	-0.021973	-0.19165	-0.11368	0.042419	-0.018005	0.29251	-0.01236	-0.2945	0.30914	-0.002441	-0.000916
55.731	0.013123	0.57465	-0.052643	0.023651	0.002594	-0.046539	-0.010834	0.016174	0.10696	0.015564	-0.010071	-0.007782	0.001678	-0.030212	0.028839	0.018005	-0.008545	0.21408	0.059814	0.044403	-0.018921	0.014648	-0.1593	-0.096741	-0.04776	-0.02182	0.26672	-0.014648	-0.17868	0.27817	-0.001678	-0.001068
55.732	0.006714	0.63126	-0.052032	0.0177	0.005188	-0.035095	0.001068	0.015259	0.13855	-0.036011	-0.003052	0.028229	0.017242	-0.021667	0.0354	0.011749	-0.006561	-0.016327	-0.57205	-0.055389	0.18829	0.029449	-0.17441	-0.12741	-0.070343	-0.028992	0.15625	-0.021515	-0.067291	-0.045319	-0.003052	-0.000916
55.733	0.003662	0.7959	-0.026245	0.000305	-0.001526	0.010223	0.00946	0.02243	0.15686	-0.062103	-0.001984	0.012665	0.067902	-0.011902	0.043488	0.002594	-0.009155	-0.078888	-0.36926	-0.10681	0.15762	-0.025024	-0.20599	-0.16678	-0.072937	0.011139	0.072784	0.001221	-0.13779	-0.38681	-0.002441	-0.001068
55.734	0.005798	0.91156	-0.050659	0.019989	-0.006714	0.040131	0.013733	0.010071	0.18555	-0.084381	-0.002441	0.018463	0.040741	-0.051727	0.052643	0.018311	0.032043	-0.26779	-0.41245	-0.050507	0.036316	-0.15656	-0.32028	-0.099945	0.01358	0.042267	0.1445	0.040436	-0.10254	-0.22598	-0.001831	-0.001678
55.735	0.003052	1.0147	-0.050507	-0.007324	-0.015411	0.041962	0.025482	0.019989	0.20294	-0.099335	0.002899	0.003662	0.080566	-0.046844	0.052795	0.01236	0.062714	-0.35721	-0.56854	-0.029755	0.011597	-0.17639	-0.32562	-0.008392	0.42099	0.062256	0.16968	-0.010223	-0.012665	-0.24277	0.000153	-0.002747
55.736	0.000458	1.0742	-0.051727	0.005798	-0.008087	0.031738	0.041809	0.019531	0.2243	-0.059509	0.000305	-0.001984	0.005341	-0.057678	0.034485	0.01358	0.065002	-0.4567	-0.70358	0.000458	-0.1712	-0.12558	-0.16129	-0.11902	0.42694	0.001373	0.12772	-0.023041	0.3656	-0.25971	-0.002747	-0.000305
55.737	0.009308	1.1211	-0.05661	0.005493	-0.00061	0.027618	0.031433	0.011902	0.23132	-0.002747	0.005951	0.003052	-0.075378	-0.050812	0.021667	0.00946	-0.003204	-0.58945	-0.72693	0.013885	-0.58411	0.1564	-0.13763	-0.11124	0.40207	-0.075989	0.15396	-0.022736	0.36636	0.21942	0.000153	-0.003204
55.738	0.006714	1.1421	-0.082245	0.00473	-0.007629	0.027771	0.027924	0.016327	0.23361	0.039368	-0.001526	-0.005493	-0.083313	-0.032654	0.026703	0.00412	-0.046539	-0.66208	-0.53314	0.047455	-0.24307	0.22903	-0.078278	-0.095215	0.30853	-0.058899	0.066681	-0.000458	0.34607	0.23025	-0.002136	-0.006409
55.739	0.011444	1.1035	-0.12253	0.012207	-0.011444	0.033722	0.039063	0.014648	0.24475	0.05722	-0.021667	-0.007172	-0.043793	-0.052032	0.038452	0.012665	-0.06485	-0.63705	-0.48355	0.07019	-0.010071	0.121	0.098267	-0.055695	0.14099	-0.069122	-0.065613	-0.003967	0.11307	0.21301	-0.003357	-0.007782
55.74	0.013123	1.0761	-0.12405	0.003662	-0.020599	0.033264	0.019684	0.008545	0.24796	0.01709	0.026245	0.009003	0.007477	-0.012054	0.052032	0.00824	-0.050812	-0.56702	-0.34195	0.054474	0.17273	0.072479	0.066223	0.15167	-0.037231	-0.028076	-0.17532	-0.029755	0.12283	0.26794	-0.003357	-0.010681
55.741	0.009613	1.0381	-0.033417	0.001831	-0.025024	0.019836	0.019684	0.012207	0.26642	-0.009308	0.025177	-0.005341	0.070343	0.028839	0.045624	0.024567	-0.030365	-0.49561	-0.28824	0.001526	0.1944	0.010986	-0.059052	0.066528	-0.39215	-0.005341	0.13275	-0.053101	-0.024719	0.18082	-0.000305	-0.009766
55.742	0.009613	0.98755	-0.032501	0.011749	-0.025177	0.006104	0.007477	0.00824	0.27634	0.01358	-0.014496	0.015564	0.099792	0.057526	0.038452	0.006866	-0.027313	-0.448	-0.42236	-0.11505	0.19989	0.007019	-0.16449	0.056	-0.75256	-0.029907	0.28702	-0.079956	-0.15961	-0.036011	0	-0.012817
